# xmcd
#
# Track frame offsets:
#	150
#	1809
#	15460
#	34377
#	53200
#	58223
#	78755
#	97388
#	120347
#	141180
#	145470
#	165665
#	189261
#	210602
#	218528
#	236047
#	251128
#
# Disc length: 3573 seconds
#
# Revision: 1
# Processed by: cddbd v1.5.1PL2 Copyright (c) Steve Scherf et al.
# Submitted via: MusicWizard 6.0.1
#
DISCID=ed0df311
DTITLE=Chingy - Jackpot
DYEAR=1900
DGENRE=Hip-Hop
TTITLE0=Jackpot Intro
TTITLE1=He's Herre
TTITLE2=Represent (Featuring Tity-Boi, I-20)
TTITLE3=Right Thurr
TTITLE4=Jackpot The Pimp (Skit)
TTITLE5=Wurrs My Cash
TTITLE6=Chingy Jackpot
TTITLE7=Sample Dat Ass (Featuring Murphy Lee)
TTITLE8=One Call Away (Featuring J/Weav)
TTITLE9=Dice Game (Skit)
TTITLE10=Gettin' It
TTITLE11=Holidae In (Featuring Ludacris And Snoop Dogg)
TTITLE12=Juice
TTITLE13=F*ck Dat Nigga (Skit)
TTITLE14=Madd @ Me
TTITLE15=Bagg Up
TTITLE16=Right Thurr (Remix) (Featuring Jermaine Dupri and Trina)
EXTD=
EXTT0=
EXTT1=
EXTT2=
EXTT3=
EXTT4=
EXTT5=
EXTT6=
EXTT7=
EXTT8=
EXTT9=
EXTT10=
EXTT11=
EXTT12=
EXTT13=
EXTT14=
EXTT15=
EXTT16=
PLAYORDER=
